<svg xmlns="http://www.w3.org/2000/svg" width="500" height="500" viewBox="0 0 500 500">
<path d="M 253,258 L 252,259 L 252,301 L 260,301 L 261,300 L 261,259 L 260,259 L 259,258 Z" fill="#5bb1ff"/>
<path d="M 221,258 L 221,259 L 220,260 L 220,262 L 219,263 L 219,265 L 218,266 L 218,268 L 217,269 L 217,271 L 216,272 L 216,274 L 215,275 L 215,277 L 214,278 L 214,279 L 213,280 L 213,283 L 212,284 L 212,285 L 211,286 L 211,289 L 210,290 L 210,291 L 209,292 L 209,295 L 208,296 L 208,297 L 207,298 L 207,301 L 216,301 L 216,300 L 217,299 L 217,298 L 218,297 L 218,294 L 220,292 L 234,292 L 235,293 L 235,294 L 236,295 L 236,296 L 237,297 L 237,301 L 247,301 L 247,299 L 246,298 L 246,296 L 245,295 L 245,293 L 244,292 L 244,290 L 243,289 L 243,287 L 242,286 L 242,284 L 241,283 L 241,281 L 240,280 L 240,278 L 239,277 L 239,276 L 238,275 L 238,273 L 237,272 L 237,270 L 236,269 L 236,267 L 235,266 L 235,263 L 234,262 L 234,261 L 233,260 L 233,258 Z" fill="#5bb1ff"/>
<path d="M 449,210 L 449,241 L 457,241 L 457,210 Z" fill="#5bb1ff"/>
<path d="M 275,210 L 275,234 L 276,235 L 276,237 L 280,241 L 282,241 L 283,242 L 289,242 L 290,241 L 291,241 L 292,240 L 294,240 L 295,241 L 303,241 L 303,210 L 295,210 L 295,229 L 294,230 L 294,232 L 293,233 L 292,233 L 290,235 L 287,235 L 284,232 L 284,231 L 283,230 L 283,210 Z" fill="#5bb1ff"/>
<path d="M 353,209 L 352,210 L 350,210 L 348,212 L 347,212 L 345,214 L 345,215 L 343,217 L 343,220 L 342,221 L 342,230 L 343,231 L 343,234 L 344,235 L 344,236 L 347,239 L 348,239 L 350,241 L 352,241 L 353,242 L 360,242 L 361,241 L 363,241 L 364,240 L 365,240 L 366,239 L 367,239 L 369,237 L 369,236 L 370,235 L 370,234 L 371,233 L 371,229 L 364,229 L 363,230 L 363,231 L 359,235 L 355,235 L 354,234 L 354,233 L 353,233 L 352,232 L 352,231 L 350,229 L 350,222 L 352,220 L 352,219 L 353,218 L 354,218 L 356,216 L 358,216 L 359,217 L 360,217 L 363,220 L 363,221 L 364,222 L 370,222 L 371,221 L 371,218 L 370,217 L 370,216 L 369,215 L 369,214 L 367,212 L 366,212 L 365,211 L 364,211 L 363,210 L 362,210 L 361,209 Z" fill="#5bb1ff"/>
<path d="M 322,209 L 321,210 L 320,210 L 318,212 L 317,211 L 317,210 L 309,210 L 309,241 L 317,241 L 317,221 L 318,220 L 318,219 L 319,218 L 320,218 L 322,216 L 324,216 L 328,220 L 328,221 L 329,222 L 329,241 L 337,241 L 337,217 L 335,215 L 335,213 L 334,213 L 333,212 L 333,211 L 332,211 L 331,210 L 330,210 L 329,209 Z" fill="#5bb1ff"/>
<path d="M 251,209 L 250,210 L 249,210 L 248,211 L 247,211 L 245,213 L 244,213 L 244,215 L 243,216 L 243,217 L 242,218 L 242,219 L 243,220 L 250,220 L 251,219 L 251,218 L 253,216 L 258,216 L 260,218 L 260,219 L 261,220 L 261,222 L 260,223 L 248,223 L 247,224 L 246,224 L 245,225 L 244,225 L 242,227 L 242,229 L 241,230 L 241,235 L 242,236 L 242,238 L 244,240 L 245,240 L 246,241 L 247,241 L 248,242 L 255,242 L 256,241 L 258,241 L 260,239 L 261,240 L 261,241 L 268,241 L 268,215 L 264,211 L 263,211 L 262,210 L 260,210 L 259,209 Z" fill="#5bb1ff"/>
<path d="M 466,202 L 466,209 L 465,210 L 462,210 L 462,216 L 463,217 L 465,217 L 466,218 L 466,238 L 468,240 L 469,240 L 470,241 L 473,241 L 474,242 L 475,242 L 476,241 L 480,241 L 480,235 L 476,235 L 473,232 L 473,218 L 474,217 L 480,217 L 480,216 L 481,215 L 481,211 L 480,210 L 474,210 L 473,209 L 473,202 Z" fill="#5bb1ff"/>
<path d="M 451,197 L 449,199 L 449,205 L 450,206 L 457,206 L 458,205 L 458,199 L 456,197 Z" fill="#5bb1ff"/>
<path d="M 413,197 L 412,198 L 411,198 L 411,241 L 419,241 L 419,227 L 421,225 L 421,224 L 422,223 L 423,224 L 423,225 L 426,228 L 426,229 L 429,232 L 429,233 L 431,235 L 431,236 L 434,239 L 434,240 L 435,241 L 444,241 L 445,240 L 444,239 L 444,238 L 442,236 L 442,235 L 441,235 L 440,234 L 440,233 L 439,232 L 439,231 L 436,228 L 436,227 L 434,225 L 434,224 L 432,222 L 432,221 L 431,221 L 430,220 L 430,219 L 429,218 L 429,217 L 430,216 L 430,215 L 431,214 L 432,214 L 432,213 L 436,209 L 436,208 L 440,204 L 440,203 L 444,199 L 444,198 L 443,197 L 435,197 L 429,203 L 429,204 L 428,205 L 427,205 L 427,206 L 422,211 L 422,212 L 421,213 L 420,213 L 419,212 L 419,198 L 418,197 Z" fill="#5bb1ff"/>
<path d="M 377,197 L 376,198 L 376,241 L 384,241 L 384,221 L 389,216 L 391,216 L 392,217 L 393,217 L 395,219 L 395,221 L 396,222 L 396,240 L 397,241 L 404,241 L 404,217 L 403,216 L 403,215 L 402,214 L 402,213 L 400,211 L 399,211 L 398,210 L 397,210 L 396,209 L 389,209 L 387,211 L 386,211 L 385,212 L 384,211 L 384,198 L 383,197 Z" fill="#5bb1ff"/>
<path d="M 211,197 L 210,198 L 209,198 L 209,240 L 210,241 L 238,241 L 238,233 L 219,233 L 218,232 L 218,198 L 217,198 L 216,197 L 213,197 L 212,198 Z" fill="#5bb1ff"/>
<path d="M 174,171 L 174,172 L 173,173 L 173,176 L 172,177 L 172,178 L 171,179 L 171,180 L 169,182 L 168,182 L 166,184 L 163,184 L 162,185 L 161,185 L 161,188 L 164,188 L 166,190 L 168,190 L 172,194 L 172,195 L 173,196 L 173,200 L 174,201 L 174,202 L 176,202 L 177,201 L 177,197 L 178,196 L 178,194 L 182,190 L 183,190 L 185,188 L 188,188 L 188,187 L 189,186 L 188,185 L 188,184 L 185,184 L 184,183 L 183,183 L 182,182 L 181,182 L 180,181 L 180,180 L 178,178 L 178,176 L 177,175 L 177,172 L 176,171 Z" fill="#5bb1ff"/>
<path d="M 105,145 L 101,149 L 100,149 L 100,150 L 99,151 L 98,151 L 98,152 L 97,153 L 96,153 L 89,160 L 89,161 L 88,162 L 87,162 L 87,163 L 84,166 L 84,167 L 81,170 L 81,171 L 78,174 L 78,176 L 77,177 L 76,177 L 76,179 L 74,181 L 74,182 L 73,183 L 73,184 L 72,185 L 72,187 L 71,188 L 71,189 L 70,190 L 70,191 L 69,192 L 69,195 L 68,196 L 68,197 L 67,198 L 67,202 L 66,203 L 66,205 L 65,206 L 65,215 L 64,216 L 64,229 L 65,230 L 65,239 L 56,248 L 56,249 L 55,250 L 54,250 L 47,257 L 47,258 L 46,259 L 46,301 L 47,302 L 47,303 L 49,305 L 55,305 L 56,304 L 57,304 L 58,303 L 59,303 L 62,300 L 63,300 L 64,299 L 65,299 L 68,296 L 69,296 L 71,294 L 72,294 L 72,293 L 73,292 L 74,292 L 76,290 L 78,292 L 79,292 L 80,293 L 80,294 L 81,294 L 82,295 L 82,296 L 83,296 L 84,297 L 84,298 L 85,299 L 85,315 L 86,316 L 86,318 L 87,319 L 87,320 L 88,321 L 88,322 L 89,323 L 89,324 L 90,325 L 90,326 L 92,328 L 92,329 L 97,334 L 97,335 L 106,344 L 107,344 L 108,345 L 110,343 L 111,343 L 121,333 L 121,332 L 124,329 L 124,328 L 126,326 L 126,325 L 128,323 L 128,322 L 129,321 L 129,320 L 130,319 L 130,316 L 131,315 L 131,311 L 132,310 L 132,297 L 133,296 L 134,296 L 134,295 L 135,294 L 136,294 L 139,291 L 140,291 L 141,292 L 142,292 L 144,294 L 145,294 L 147,296 L 148,296 L 150,298 L 151,298 L 154,301 L 155,301 L 157,303 L 158,303 L 160,305 L 167,305 L 170,302 L 170,299 L 171,298 L 171,264 L 170,263 L 170,259 L 169,258 L 169,257 L 167,255 L 167,254 L 165,252 L 164,252 L 163,251 L 163,250 L 151,238 L 151,237 L 152,236 L 152,229 L 153,228 L 153,218 L 152,217 L 152,209 L 151,208 L 151,203 L 150,202 L 150,201 L 149,200 L 149,196 L 148,195 L 148,194 L 147,193 L 147,191 L 145,189 L 145,186 L 143,184 L 143,183 L 141,181 L 141,179 L 139,177 L 139,176 L 138,175 L 138,174 L 136,172 L 136,171 L 134,169 L 134,168 L 130,164 L 130,163 L 118,151 L 117,151 L 116,150 L 116,149 L 115,149 L 111,145 Z" fill="#5bb1ff"/>
</svg>